# xmcd CD database file
#
# Track frame offsets:
#	150
#	28801
#	60594
#	72758
#	89348
#	110299
#	125966
#	142106
#	154095
#	179969
#	203849
#	225597
#	244011
#	258768
#	286172
#	301482
#	319765
#
# Disc length: 4405 seconds
#
# Revision: 0
# Processed by: cddbd v1.5PL3 Copyright (c) Steve Scherf et al.
# Submitted via: CDex 1.60beta1
#
DISCID=f9113311
DTITLE=Dick Wellstood - Live at the Sticky Wicket [CD2]
DYEAR=1986
DGENRE=Jazz
TTITLE0=Ring Dem Bells/Sophisticated Lady/Jumpin' Punkins [Medley]
TTITLE1=Someone to Watch over Me/How Long Has This Been Going on?/Liza
TTITLE2=Maple Leaf Rag
TTITLE3=Russian Rag
TTITLE4=Caravan
TTITLE5=Limehouse Blues
TTITLE6=Diane (I'm in Heaven When I See You Smile)
TTITLE7=Giant Steps
TTITLE8=What Are You Doing the Rest of Your Life?/Groovin' High [Medley]
TTITLE9=Pearls
TTITLE10=Like Someone in Love
TTITLE11=Shoe Shine Boy
TTITLE12=Lulu's Back in Town
TTITLE13=Prelude to a Kiss/Pitter Panther Patter [Medley]
TTITLE14=My Melancholy Baby
TTITLE15=Keepin' Out of Mischief Now
TTITLE16=March of the Musketeers
EXTD=YEAR: 1986
EXTT0=
EXTT1=
EXTT2=
EXTT3=
EXTT4=
EXTT5=
EXTT6=
EXTT7=
EXTT8=
EXTT9=
EXTT10=
EXTT11=
EXTT12=
EXTT13=
EXTT14=
EXTT15=
EXTT16=
PLAYORDER=
